<?xml version="1.0" encoding="utf-8"?>
<!-- Generator: Adobe Illustrator 25.0.0, SVG Export Plug-In . SVG Version: 6.00 Build 0)  -->
<svg version="1.1" id="Layer_1" xmlns="http://www.w3.org/2000/svg" xmlns:xlink="http://www.w3.org/1999/xlink" x="0px" y="0px"
	 viewBox="0 0 40 40" style="enable-background:new 0 0 40 40;" xml:space="preserve">
<style type="text/css">
	.st0{clip-path:url(#SVGID_2_);fill:#9E0000;}
</style>
<g>
	<defs>
		<rect id="SVGID_1_" width="40" height="39.02"/>
	</defs>
	<clipPath id="SVGID_2_">
		<use xlink:href="#SVGID_1_"  style="overflow:visible;"/>
	</clipPath>
	<path class="st0" d="M15.09,32.36c0.03,0.16-0.14,0.33-0.37,0.37c-0.23,0.05-0.45-0.06-0.48-0.22c-0.03-0.17,0.14-0.33,0.38-0.37
		C14.86,32.09,15.06,32.19,15.09,32.36 M13.44,32.42c0,0.17-0.19,0.3-0.42,0.31c-0.23,0-0.44-0.12-0.44-0.3
		c0-0.17,0.19-0.3,0.42-0.31C13.25,32.12,13.44,32.25,13.44,32.42 M11.77,32.23c-0.05,0.16-0.27,0.23-0.5,0.16
		c-0.22-0.06-0.37-0.25-0.33-0.41s0.27-0.23,0.5-0.16C11.67,31.89,11.81,32.08,11.77,32.23 M10.3,31.8
		c-0.11,0.13-0.34,0.09-0.52-0.08c-0.17-0.16-0.22-0.39-0.11-0.52c0.11-0.13,0.34-0.09,0.52,0.08C10.36,31.44,10.41,31.67,10.3,31.8
		 M9.16,30.48c-0.12,0.08-0.33,0-0.45-0.17c-0.12-0.17-0.12-0.39,0-0.48c0.13-0.08,0.33-0.02,0.45,0.17
		C9.28,30.19,9.28,30.41,9.16,30.48 M8.47,29.37c-0.09,0.09-0.28,0.05-0.41-0.09C7.94,29.14,7.91,28.95,8,28.86
		c0.09-0.09,0.28-0.05,0.41,0.09C8.55,29.09,8.58,29.28,8.47,29.37 M7.48,28.48c-0.05,0.09-0.2,0.13-0.34,0.06
		c-0.14-0.06-0.22-0.2-0.17-0.3c0.05-0.11,0.2-0.13,0.34-0.06C7.45,28.25,7.55,28.39,7.48,28.48 M20,0C8.95,0,0,8.95,0,20
		c0,8.84,5.73,16.33,13.67,18.98c1,0.19,1.36-0.44,1.36-0.97c0-0.48-0.02-2.05-0.03-3.72c-5.55,1.2-6.72-2.36-6.72-2.36
		c-0.91-2.31-2.22-2.92-2.22-2.92C4.25,27.78,6.2,27.8,6.2,27.8c2.02,0.14,3.06,2.06,3.06,2.06c1.78,3.06,4.67,2.17,5.81,1.66
		c0.17-1.3,0.7-2.17,1.27-2.67c-4.44-0.5-9.11-2.22-9.11-9.89c0-2.19,0.78-3.97,2.06-5.37c-0.2-0.5-0.89-2.53,0.19-5.3
		c0,0,1.67-0.53,5.5,2.05c1.59-0.44,3.31-0.67,5-0.67c1.7,0,3.41,0.23,5.02,0.67c3.81-2.59,5.5-2.05,5.5-2.05
		c1.09,2.75,0.41,4.8,0.2,5.3c1.28,1.41,2.06,3.19,2.06,5.37c0,7.69-4.67,9.37-9.13,9.88c0.72,0.63,1.36,1.84,1.36,3.7
		c0,2.67-0.02,4.83-0.02,5.48c0,0.53,0.36,1.16,1.37,0.95C34.28,36.33,40,28.83,40,20C40,8.95,31.05,0,20,0"/>
</g>
</svg>
